<?xml version="1.0" encoding="utf-8"?>
<!-- Generator: Adobe Illustrator 16.0.5, SVG Export Plug-In . SVG Version: 6.00 Build 0)  -->
<!DOCTYPE svg PUBLIC "-//W3C//DTD SVG 1.1//EN" "http://www.w3.org/Graphics/SVG/1.1/DTD/svg11.dtd">
<svg version="1.1" id="Layer_1" xmlns="http://www.w3.org/2000/svg" xmlns:xlink="http://www.w3.org/1999/xlink" x="0px" y="0px"
	 width="69.701px" height="20.566px" viewBox="0 0 69.701 20.566" enable-background="new 0 0 69.701 20.566" xml:space="preserve">
<path fill="#B5B5B5" d="M17.276,0.494h3.125l-8.583,19.58H8.721L0,0.494h3.291l7.048,16.562L17.276,0.494z"/>
<path fill="#B5B5B5" d="M35.817,20.074h-3.126l8.583-19.58h3.1l8.721,19.58h-3.291L42.757,3.509L35.817,20.074z"/>
<path fill="#B5B5B5" d="M55.194,13.629c0.018,0.844,0.209,1.552,0.574,2.125c0.362,0.576,0.846,1.033,1.438,1.371
	c0.596,0.338,1.258,0.576,1.988,0.713c0.729,0.142,1.498,0.206,2.304,0.206c1.591,0,2.87-0.292,3.841-0.878
	c0.969-0.585,1.453-1.396,1.453-2.438c0-0.844-0.309-1.484-0.918-1.938c-0.613-0.444-1.521-0.771-2.729-0.975l-4.441-0.739
	c-0.714-0.108-1.389-0.266-2.029-0.467c-0.64-0.201-1.248-0.488-1.822-0.863c-0.578-0.375-1.047-0.877-1.414-1.509
	c-0.362-0.63-0.549-1.396-0.549-2.289c0-1.812,0.689-3.255,2.071-4.333C56.341,0.539,58.265,0,60.733,0
	c1.061,0,2.061,0.104,3.002,0.314c0.938,0.209,1.806,0.554,2.594,1.024c0.783,0.479,1.42,1.111,1.904,1.905
	c0.479,0.795,0.764,1.76,0.836,2.896h-2.907c-0.073-0.479-0.2-0.909-0.382-1.307c-0.184-0.394-0.486-0.769-0.906-1.124
	c-0.42-0.354-1.001-0.646-1.741-0.861c-0.739-0.223-1.668-0.328-2.784-0.328c-0.562,0-1.115,0.061-1.645,0.179
	c-0.531,0.119-1.016,0.312-1.454,0.575c-0.438,0.266-0.79,0.604-1.056,1.015c-0.271,0.411-0.398,0.895-0.398,1.439
	c0,0.642,0.248,1.181,0.742,1.618c0.492,0.438,1.314,0.759,2.468,0.96l4.8,0.818h0.053c0.646,0.128,1.25,0.271,1.824,0.428
	c0.576,0.153,1.18,0.408,1.812,0.77c0.631,0.355,1.154,0.85,1.574,1.479c0.422,0.634,0.634,1.411,0.634,2.347
	c0,1.188-0.238,2.199-0.716,3.028c-0.479,0.831-1.117,1.5-1.934,2.005c-0.812,0.503-1.716,0.855-2.699,1.066
	c-0.986,0.209-2.015,0.313-3.071,0.313c-1.188,0-2.31-0.112-3.358-0.344c-1.052-0.229-2.004-0.605-2.854-1.141
	c-0.854-0.53-1.525-1.248-2.027-2.15c-0.504-0.903-0.756-2.008-0.756-3.307h2.906V13.629L55.194,13.629z"/>
<path fill="#B5B5B5" d="M32.17,3.043c-1.426-1.698-3.566-2.549-6.417-2.549h-4.189v2.521h3.668c1.206,0,2.216,0.188,3.029,0.572
	c0.814,0.388,1.449,0.91,1.907,1.577c0.456,0.668,0.777,1.412,0.96,2.236c0.182,0.821,0.273,1.709,0.273,2.659
	c0,0.983-0.077,1.911-0.233,2.771c-0.155,0.859-0.435,1.646-0.837,2.357c-0.401,0.714-0.978,1.285-1.727,1.716
	c-0.75,0.429-1.691,0.646-2.825,0.646h-11.5v2.521h11.639c1.462,0,2.729-0.262,3.797-0.782c1.07-0.521,1.943-1.242,2.619-2.166
	c0.677-0.923,1.175-1.984,1.496-3.191c0.319-1.206,0.479-2.517,0.479-3.925C34.309,7.066,33.595,4.744,32.17,3.043z"/>
</svg>
